<mxfile host="app.diagrams.net" modified="2024-06-25T11:33:12.033Z" agent="Mozilla/5.0 (Windows NT 10.0; Win64; x64) AppleWebKit/537.36 (KHTML, like Gecko) Chrome/126.0.0.0 Safari/537.36" etag="WsCQM3_6OjS2mnRVv6Gk" version="24.6.2" type="device" pages="2">
  <diagram id="u5WDx9l0R5Jv4IKOf_Hw" name="Component">
    <mxGraphModel dx="298" dy="522" grid="1" gridSize="10" guides="1" tooltips="1" connect="1" arrows="1" fold="1" page="1" pageScale="1" pageWidth="827" pageHeight="1169" math="0" shadow="0">
      <root>
        <mxCell id="0" />
        <mxCell id="1" parent="0" />
        <mxCell id="pjQdxNE4f0hHTIOkz6c6-1" value="" style="whiteSpace=wrap;html=1;aspect=fixed;fillColor=#ffe6cc;strokeColor=#d79b00;" vertex="1" parent="1">
          <mxGeometry x="90" y="480" width="340" height="340" as="geometry" />
        </mxCell>
        <mxCell id="pjQdxNE4f0hHTIOkz6c6-2" style="edgeStyle=orthogonalEdgeStyle;rounded=0;orthogonalLoop=1;jettySize=auto;html=1;exitX=0.5;exitY=1;exitDx=0;exitDy=0;entryX=0.5;entryY=0;entryDx=0;entryDy=0;" edge="1" parent="1" source="pjQdxNE4f0hHTIOkz6c6-4" target="pjQdxNE4f0hHTIOkz6c6-1">
          <mxGeometry relative="1" as="geometry" />
        </mxCell>
        <mxCell id="pjQdxNE4f0hHTIOkz6c6-3" value="Talks over HTTP" style="edgeLabel;html=1;align=center;verticalAlign=middle;resizable=0;points=[];" vertex="1" connectable="0" parent="pjQdxNE4f0hHTIOkz6c6-2">
          <mxGeometry x="0.1165" y="2" relative="1" as="geometry">
            <mxPoint as="offset" />
          </mxGeometry>
        </mxCell>
        <mxCell id="pjQdxNE4f0hHTIOkz6c6-4" value="Web Browser(Client)" style="rounded=1;whiteSpace=wrap;html=1;" vertex="1" parent="1">
          <mxGeometry x="200" y="360" width="120" height="60" as="geometry" />
        </mxCell>
        <mxCell id="pjQdxNE4f0hHTIOkz6c6-5" value="&lt;b&gt;MY TO DO APP&lt;/b&gt;" style="ellipse;whiteSpace=wrap;html=1;" vertex="1" parent="1">
          <mxGeometry x="80" y="470" width="70" height="80" as="geometry" />
        </mxCell>
        <mxCell id="pjQdxNE4f0hHTIOkz6c6-6" style="edgeStyle=orthogonalEdgeStyle;rounded=0;orthogonalLoop=1;jettySize=auto;html=1;entryX=0.5;entryY=0;entryDx=0;entryDy=0;" edge="1" parent="1" source="pjQdxNE4f0hHTIOkz6c6-8" target="pjQdxNE4f0hHTIOkz6c6-9">
          <mxGeometry relative="1" as="geometry" />
        </mxCell>
        <mxCell id="pjQdxNE4f0hHTIOkz6c6-7" value="passes request to" style="edgeLabel;html=1;align=center;verticalAlign=middle;resizable=0;points=[];" vertex="1" connectable="0" parent="pjQdxNE4f0hHTIOkz6c6-6">
          <mxGeometry x="-0.1878" y="1" relative="1" as="geometry">
            <mxPoint as="offset" />
          </mxGeometry>
        </mxCell>
        <mxCell id="pjQdxNE4f0hHTIOkz6c6-8" value="Flask Webserver" style="rounded=1;whiteSpace=wrap;html=1;fillColor=#fff2cc;strokeColor=#d6b656;" vertex="1" parent="1">
          <mxGeometry x="220" y="610" width="120" height="60" as="geometry" />
        </mxCell>
        <mxCell id="pjQdxNE4f0hHTIOkz6c6-9" value="&lt;font style=&quot;font-size: 11px;&quot;&gt;TO DO Application Code&lt;/font&gt;&lt;div style=&quot;font-size: 11px;&quot;&gt;&lt;font style=&quot;font-size: 11px;&quot;&gt;(Python WSGI App)&lt;/font&gt;&lt;/div&gt;" style="rounded=1;whiteSpace=wrap;html=1;fillColor=#d5e8d4;strokeColor=#82b366;" vertex="1" parent="1">
          <mxGeometry x="220" y="740" width="120" height="40" as="geometry" />
        </mxCell>
        <mxCell id="pjQdxNE4f0hHTIOkz6c6-10" value="Trello API" style="rounded=1;whiteSpace=wrap;html=1;fillColor=#dae8fc;strokeColor=#6c8ebf;" vertex="1" parent="1">
          <mxGeometry x="220" y="960" width="110" height="60" as="geometry" />
        </mxCell>
        <mxCell id="pjQdxNE4f0hHTIOkz6c6-11" style="edgeStyle=orthogonalEdgeStyle;rounded=0;orthogonalLoop=1;jettySize=auto;html=1;entryX=0.562;entryY=0.1;entryDx=0;entryDy=0;entryPerimeter=0;" edge="1" parent="1" source="pjQdxNE4f0hHTIOkz6c6-9" target="pjQdxNE4f0hHTIOkz6c6-10">
          <mxGeometry relative="1" as="geometry" />
        </mxCell>
        <mxCell id="pjQdxNE4f0hHTIOkz6c6-12" value="Via HTTP API" style="edgeLabel;html=1;align=center;verticalAlign=middle;resizable=0;points=[];" vertex="1" connectable="0" parent="pjQdxNE4f0hHTIOkz6c6-11">
          <mxGeometry x="0.1986" y="1" relative="1" as="geometry">
            <mxPoint as="offset" />
          </mxGeometry>
        </mxCell>
      </root>
    </mxGraphModel>
  </diagram>
  <diagram name="Container" id="aVp12DW6VUJgue2Yv8Vj">
    <mxGraphModel dx="804" dy="526" grid="1" gridSize="10" guides="1" tooltips="1" connect="1" arrows="1" fold="1" page="1" pageScale="1" pageWidth="827" pageHeight="1169" math="0" shadow="0">
      <root>
        <mxCell id="0" />
        <mxCell id="1" parent="0" />
        <mxCell id="cf8RRRetHKUJhMzkIelR-1" value="" style="whiteSpace=wrap;html=1;aspect=fixed;fillColor=#ffe6cc;strokeColor=#d79b00;" vertex="1" parent="1">
          <mxGeometry x="360" y="280" width="390" height="390" as="geometry" />
        </mxCell>
        <mxCell id="cf8RRRetHKUJhMzkIelR-12" value="Trello API" style="rounded=1;whiteSpace=wrap;html=1;fillColor=#dae8fc;strokeColor=#6c8ebf;" vertex="1" parent="1">
          <mxGeometry x="510" y="830" width="110" height="60" as="geometry" />
        </mxCell>
        <mxCell id="lo5plsquFdqN1K1qIfx2-1" value="Flask Webserver" style="rounded=1;whiteSpace=wrap;html=1;fillColor=#fff2cc;strokeColor=#d6b656;" vertex="1" parent="1">
          <mxGeometry x="490" y="70" width="160" height="90" as="geometry" />
        </mxCell>
        <mxCell id="lo5plsquFdqN1K1qIfx2-2" style="edgeStyle=orthogonalEdgeStyle;rounded=0;orthogonalLoop=1;jettySize=auto;html=1;entryX=0.56;entryY=-0.005;entryDx=0;entryDy=0;entryPerimeter=0;" edge="1" parent="1" source="lo5plsquFdqN1K1qIfx2-1" target="LlWjPdU0re7O2d9-FW-T-1">
          <mxGeometry relative="1" as="geometry" />
        </mxCell>
        <mxCell id="lo5plsquFdqN1K1qIfx2-3" value="Passes request to" style="edgeLabel;html=1;align=center;verticalAlign=middle;resizable=0;points=[];" vertex="1" connectable="0" parent="lo5plsquFdqN1K1qIfx2-2">
          <mxGeometry x="-0.0854" relative="1" as="geometry">
            <mxPoint as="offset" />
          </mxGeometry>
        </mxCell>
        <mxCell id="QcuwM3GwqsUhFDtoZMXB-1" value="&lt;font style=&quot;font-size: 11px;&quot;&gt;TO DO Application Code&lt;/font&gt;&lt;div style=&quot;font-size: 11px;&quot;&gt;&lt;font style=&quot;font-size: 11px;&quot;&gt;(Python WSGT App)&lt;/font&gt;&lt;/div&gt;" style="ellipse;whiteSpace=wrap;html=1;" vertex="1" parent="1">
          <mxGeometry x="300" y="230" width="90" height="80" as="geometry" />
        </mxCell>
        <mxCell id="LlWjPdU0re7O2d9-FW-T-13" style="edgeStyle=orthogonalEdgeStyle;rounded=0;orthogonalLoop=1;jettySize=auto;html=1;entryX=0.5;entryY=0;entryDx=0;entryDy=0;" edge="1" parent="1" source="LlWjPdU0re7O2d9-FW-T-1" target="LlWjPdU0re7O2d9-FW-T-4">
          <mxGeometry relative="1" as="geometry" />
        </mxCell>
        <mxCell id="LlWjPdU0re7O2d9-FW-T-1" value="Webserver route&lt;div&gt;(app.py)&lt;/div&gt;" style="rounded=1;whiteSpace=wrap;html=1;" vertex="1" parent="1">
          <mxGeometry x="513" y="320" width="104" height="60" as="geometry" />
        </mxCell>
        <mxCell id="LlWjPdU0re7O2d9-FW-T-12" style="edgeStyle=orthogonalEdgeStyle;rounded=0;orthogonalLoop=1;jettySize=auto;html=1;exitX=1;exitY=0.5;exitDx=0;exitDy=0;" edge="1" parent="1" source="LlWjPdU0re7O2d9-FW-T-2" target="LlWjPdU0re7O2d9-FW-T-1">
          <mxGeometry relative="1" as="geometry" />
        </mxCell>
        <mxCell id="LlWjPdU0re7O2d9-FW-T-2" value="HTML Template" style="rounded=1;whiteSpace=wrap;html=1;" vertex="1" parent="1">
          <mxGeometry x="370" y="320" width="120" height="60" as="geometry" />
        </mxCell>
        <mxCell id="LlWjPdU0re7O2d9-FW-T-10" style="edgeStyle=orthogonalEdgeStyle;rounded=0;orthogonalLoop=1;jettySize=auto;html=1;entryX=0.5;entryY=0;entryDx=0;entryDy=0;" edge="1" parent="1" source="LlWjPdU0re7O2d9-FW-T-4" target="cf8RRRetHKUJhMzkIelR-12">
          <mxGeometry relative="1" as="geometry" />
        </mxCell>
        <mxCell id="LlWjPdU0re7O2d9-FW-T-11" value="Via HTTP API" style="edgeLabel;html=1;align=center;verticalAlign=middle;resizable=0;points=[];" vertex="1" connectable="0" parent="LlWjPdU0re7O2d9-FW-T-10">
          <mxGeometry x="0.0008" y="5" relative="1" as="geometry">
            <mxPoint as="offset" />
          </mxGeometry>
        </mxCell>
        <mxCell id="LlWjPdU0re7O2d9-FW-T-4" value="Trello Client" style="rounded=1;whiteSpace=wrap;html=1;" vertex="1" parent="1">
          <mxGeometry x="520" y="585" width="90" height="60" as="geometry" />
        </mxCell>
        <mxCell id="LlWjPdU0re7O2d9-FW-T-14" style="edgeStyle=orthogonalEdgeStyle;rounded=0;orthogonalLoop=1;jettySize=auto;html=1;entryX=1;entryY=0.5;entryDx=0;entryDy=0;" edge="1" parent="1" source="LlWjPdU0re7O2d9-FW-T-3" target="LlWjPdU0re7O2d9-FW-T-4">
          <mxGeometry relative="1" as="geometry" />
        </mxCell>
        <mxCell id="LlWjPdU0re7O2d9-FW-T-15" style="edgeStyle=orthogonalEdgeStyle;rounded=0;orthogonalLoop=1;jettySize=auto;html=1;exitX=0.5;exitY=0;exitDx=0;exitDy=0;entryX=1;entryY=0.5;entryDx=0;entryDy=0;" edge="1" parent="1" source="LlWjPdU0re7O2d9-FW-T-3" target="LlWjPdU0re7O2d9-FW-T-1">
          <mxGeometry relative="1" as="geometry" />
        </mxCell>
        <mxCell id="LlWjPdU0re7O2d9-FW-T-3" value="Data Classes&lt;div&gt;(Item/ViewModel)&lt;/div&gt;" style="rounded=1;whiteSpace=wrap;html=1;" vertex="1" parent="1">
          <mxGeometry x="610" y="445" width="120" height="55" as="geometry" />
        </mxCell>
      </root>
    </mxGraphModel>
  </diagram>
</mxfile>
